# xmcd CD database file
#
# Track frame offsets:
#	150
#	37189
#	66639
#	88809
#	109118
#	123239
#	163155
#	183922
#
# Disc length: 2953 seconds
#
# Revision: 0
# Processed by: cddbd v1.5.2PL0 Copyright (c) Steve Scherf et al.
# Submitted via: CDex 1.51
#
DISCID=720b8708
DTITLE=Michael Bloomfield with Mark Naftlin - The Record Plant '73
DYEAR=1973
DGENRE=Blues
TTITLE0=( Better Stop Drinkin' That Wine ) Sonny Boy
TTITLE1=( I Want You To ) Love Me Woman
TTITLE2=Swingin' Time Woman
TTITLE3=I`m Blue, Really Blue
TTITLE4=The TV Hymn
TTITLE5=I Wonder Why
TTITLE6=I Will Always Love You
TTITLE7=At The Cross
EXTD=YEAR: 1973
EXTT0=
EXTT1=
EXTT2=
EXTT3=
EXTT4=
EXTT5=
EXTT6=
EXTT7=
PLAYORDER=
